<?xml version="1.0" standalone="no"?>
<!DOCTYPE svg PUBLIC "-//W3C//DTD SVG 20010904//EN"
 "http://www.w3.org/TR/2001/REC-SVG-20010904/DTD/svg10.dtd">
<svg version="1.0" xmlns="http://www.w3.org/2000/svg"
 width="794.000000pt" height="794.000000pt" viewBox="0 0 794.000000 794.000000"
 preserveAspectRatio="xMidYMid meet">
<metadata>
Created by potrace 1.10, written by Peter Selinger 2001-2011
</metadata>
<g transform="translate(0.000000,794.000000) scale(0.050000,-0.050000)"
fill="#000000" stroke="none">
<path d="M4820 15680 c-270 -126 -280 -161 -442 -1470 -117 -948 -111 -1002
172 -1448 144 -228 174 -318 166 -492 -7 -152 27 -191 78 -90 20 39 25 42 26
14 0 -20 -9 -53 -19 -73 -38 -71 48 -118 88 -48 l32 57 -12 -83 c-14 -95 17
-132 63 -74 27 34 29 32 24 -33 -5 -51 2 -70 24 -70 119 0 128 276 16 518
-180 391 -114 558 286 724 255 105 458 320 458 483 0 33 32 32 134 -8 106 -40
110 -9 -41 -317 -146 -296 -521 -1090 -656 -1388 -57 -127 -58 -127 -129 -116
-50 9 -68 5 -63 -12 5 -13 32 -27 61 -30 44 -6 50 -13 36 -50 -18 -49 -4 -395
16 -393 6 1 93 98 192 216 l180 215 160 22 c1118 155 1483 1219 596 1739 -65
39 -85 61 -75 85 179 432 129 558 -75 187 -88 -159 -93 -162 -222 -107 l-90
39 37 176 c19 97 46 250 59 339 l24 162 110 34 c554 175 411 952 -176 952 -65
0 -91 17 -211 137 -222 222 -591 312 -827 203z m545 -216 c179 -88 220 -136
143 -165 -786 -296 -808 -1130 -41 -1519 195 -99 190 -89 125 -216 -224 -443
-967 -565 -1082 -179 -54 182 63 1408 174 1823 89 334 335 426 681 256z m657
-206 c404 -103 421 -665 25 -831 -115 -47 -118 -43 -110 134 9 203 -27 456
-86 603 -60 151 -58 153 171 94z m-356 -103 c82 -174 133 -518 105 -703 -13
-89 -16 -92 -87 -95 l-74 -4 77 -8 77 -8 -14 -113 c-21 -180 -70 -447 -86
-475 -29 -52 -338 123 -496 280 -386 384 -272 935 242 1173 175 82 198 78 256
-47z m492 -1532 c-18 -52 -78 -92 -78 -52 0 22 46 99 67 113 33 21 35 8 11
-61z m-58 -128 c0 -14 -27 -65 -60 -115 -67 -101 -75 -90 -28 46 29 85 88 131
88 69z m195 -95 c714 -476 444 -1361 -482 -1581 -97 -22 -189 -39 -205 -35
-52 11 569 716 631 716 155 0 210 197 83 294 -98 75 -249 -16 -251 -150 -1
-106 -605 -883 -686 -884 -64 0 -77 -31 291 722 186 378 368 758 405 843 81
182 64 176 214 75z m-1363 -474 c-62 -66 -80 -141 -64 -263 12 -88 11 -90 -16
-43 -58 104 -47 228 26 302 74 73 121 77 54 4z m1328 -162 c0 -31 -49 -64 -94
-64 -51 0 -59 19 -22 56 27 27 116 33 116 8z m-959 -1163 c-75 -89 -120 -130
-95 -86 5 8 25 50 44 92 31 66 103 123 128 101 4 -3 -31 -52 -77 -107z"/>
<path d="M3327 15521 c-889 -450 -592 -2097 355 -1970 l92 12 15 -247 c30
-529 151 -919 408 -1323 149 -233 167 -366 112 -803 -17 -131 32 -195 210
-275 72 -32 161 -82 197 -109 64 -48 71 -49 194 -26 l127 24 17 133 c76 624
15 803 -392 1154 -599 516 -755 1054 -530 1835 206 716 217 960 60 1270 -166
327 -565 477 -865 325z m497 -166 c517 -305 435 -1329 -130 -1618 -259 -133
-535 18 -704 386 -306 669 291 1551 834 1232z m858 -4016 c94 -51 92 -200 -4
-250 -154 -80 -291 100 -169 222 53 53 110 62 173 28z"/>
<path d="M4550 11300 c-7 -11 1 -20 18 -20 16 0 34 -8 40 -17 6 -10 -11 -13
-38 -8 -91 18 -82 -116 9 -145 94 -30 168 76 112 161 -33 50 -117 67 -141 29z"/>
<path d="M3113 13100 c-460 -146 -1224 -817 -1087 -954 138 -139 1040 421
1277 793 119 186 56 240 -190 161z m-213 -314 c0 -45 -163 -194 -268 -245
-177 -85 -232 -22 -99 114 l72 75 -62 -76 c-117 -141 -61 -178 108 -72 172
108 246 200 184 225 -14 5 -5 11 20 11 29 1 45 -10 45 -32z"/>
<path d="M3350 12946 c-145 -274 -880 -802 -1171 -841 -95 -12 -94 -15 16
-114 80 -71 91 -75 170 -62 47 8 117 18 155 23 l70 8 -80 -28 -80 -28 70 -2
c39 -1 124 11 190 27 66 15 123 25 126 22 6 -6 -187 -73 -286 -99 -22 -6 28
-8 110 -4 l150 7 -119 -38 c-159 -51 -165 -65 -21 -48 132 16 141 3 19 -28
-69 -18 -61 -19 71 -13 142 6 146 5 80 -19 -38 -14 -90 -27 -114 -27 -24 -1
-49 -11 -56 -22 -9 -14 26 -17 104 -9 129 14 136 0 15 -29 l-79 -18 102 -2
c56 -1 145 11 199 27 53 16 101 26 105 22 5 -5 -72 -34 -169 -64 -186 -59
-175 -89 17 -48 126 27 152 12 33 -19 -179 -46 -195 -61 -57 -53 l130 8 -105
-33 c-477 -146 -728 -991 -379 -1277 24 -20 62 -70 83 -112 47 -91 138 -166
303 -249 273 -137 359 -324 201 -434 -47 -34 -30 -40 27 -10 165 88 64 330
-197 473 -123 68 -283 197 -283 229 0 8 36 6 80 -4 357 -80 566 385 230 513
-209 80 -410 -73 -410 -313 0 -104 -36 -82 -116 71 -195 374 124 1012 545
1089 163 30 163 25 1 -28 l-140 -47 100 -4 c58 -3 79 -8 50 -13 -27 -5 -59
-19 -70 -30 -20 -21 183 -5 245 19 32 12 17 105 -22 129 -12 9 -14 16 -3 16
11 0 20 48 20 107 0 147 125 376 325 597 47 52 96 117 108 145 13 28 31 51 40
51 23 0 -4 63 -47 109 -20 21 -36 50 -36 65 0 14 -13 26 -30 26 -17 0 -30 18
-30 40 0 22 -9 40 -19 40 -11 0 -15 -12 -9 -27 5 -15 -31 -71 -82 -125 l-92
-98 72 109 c51 76 70 125 63 159 -5 28 -1 71 9 96 20 55 5 58 -49 11 -40 -35
-40 -34 -7 14 55 81 40 120 -19 51 l-52 -60 43 78 c46 81 41 128 -6 61 -74
-106 -106 -128 -50 -35 34 57 59 113 55 125 -4 12 -25 -12 -47 -53z m91 -324
c-28 -52 -255 -258 -374 -338 -69 -47 -77 -50 -27 -11 39 31 142 130 230 219
161 164 209 200 171 130z m102 -137 c-47 -66 -203 -213 -162 -153 101 146 152
207 175 207 19 1 15 -16 -13 -54z m59 -40 c-10 -19 -47 -62 -83 -95 l-64 -60
67 94 c66 91 118 131 80 61z m41 -60 c-11 -19 -44 -57 -74 -85 l-54 -50 57 84
c57 83 107 120 71 51z m-556 -1927 c130 -144 -14 -378 -232 -378 -181 0 -249
89 -198 259 63 209 291 272 430 119z"/>
<path d="M3818 12510 c-43 -98 -138 -232 -261 -368 -281 -308 -315 -641 -95
-908 83 -101 92 -84 24 47 -46 88 -57 136 -60 268 l-3 161 19 -127 c19 -127
77 -268 121 -295 17 -10 19 -1 7 34 -9 26 -18 107 -22 178 l-6 130 27 -103
c14 -56 32 -112 40 -125 22 -36 53 -4 34 34 -20 38 -9 84 19 84 10 0 18 -13
18 -29 0 -43 30 -54 89 -31 29 10 113 29 187 41 338 53 375 139 189 444 -123
201 -196 346 -256 504 l-45 121 -26 -60z"/>
<path d="M3233 11634 c-16 -62 -5 -148 41 -312 35 -123 29 -197 -37 -539 l-45
-227 47 -88 c126 -237 606 -499 1059 -579 519 -91 1089 56 1425 367 183 170
206 228 187 484 -17 233 -16 216 -10 482 7 280 -51 368 -247 375 -200 7 -290
-153 -221 -392 25 -85 28 -127 12 -178 -26 -87 -12 -85 129 19 187 139 259
299 198 445 -36 86 -23 90 21 6 234 -453 -763 -966 -1510 -779 -507 127 -923
485 -1010 868 -22 97 -25 100 -39 48z m293 -684 c57 -49 110 -90 119 -90 8 0
15 -15 15 -33 0 -30 -4 -30 -40 3 -58 52 -69 28 -69 -151 -1 -234 -40 -186
-47 57 -5 174 -11 206 -42 223 -35 19 -73 81 -50 81 7 0 58 -40 114 -90z
m2234 -255 c50 -81 50 -96 0 -109 -22 -6 -40 -19 -40 -28 0 -24 -75 -98 -100
-98 -35 0 -21 113 20 165 22 28 40 57 40 65 0 7 -18 7 -40 0 -48 -15 -51 -4
-9 39 48 47 86 38 129 -34z m-2032 -53 c19 -21 61 -103 94 -183 58 -144 61
-205 6 -129 -16 22 -40 41 -54 42 -13 1 -35 3 -49 5 -84 10 -101 175 -19 187
l44 6 -45 39 c-25 22 -45 47 -45 55 0 28 33 17 68 -22z m1773 -409 c-11 -29
-30 -53 -43 -53 -14 0 -17 13 -7 35 8 19 18 116 23 215 5 99 15 194 22 210 23
49 27 -349 5 -407z m-137 212 c9 -124 2 -165 -26 -165 -10 0 -18 63 -18 140 0
168 33 187 44 25z m-1390 55 c8 -30 22 -37 58 -28 155 39 251 -149 120 -237
-40 -26 -132 -17 -132 14 0 21 17 26 67 18 81 -14 107 29 68 110 -18 38 -43
55 -89 59 -74 7 -91 -42 -82 -234 4 -72 -2 -111 -19 -117 -19 -6 -25 38 -25
178 0 103 -6 207 -13 232 -7 29 -3 45 13 45 13 0 28 -18 34 -40z m1282 -15
c-4 -19 -23 -35 -43 -35 -55 0 -93 -68 -93 -165 0 -137 -42 -92 -48 51 -5 134
1 155 38 124 17 -14 35 -8 60 20 45 50 95 52 86 5z m-656 -45 c0 -29 13 -40
50 -40 28 0 50 -9 50 -20 0 -11 -23 -20 -52 -20 -50 0 -52 -3 -45 -113 4 -67
-2 -116 -14 -121 -24 -8 -66 240 -53 309 11 56 64 60 64 5z m-124 -58 c7 -21
-6 -25 -61 -14 -48 9 -77 4 -93 -15 -18 -23 -11 -30 39 -40 34 -7 56 -21 49
-33 -7 -11 -34 -15 -61 -8 -61 15 -64 -19 -5 -60 25 -18 65 -26 95 -20 49 10
50 10 12 -21 -123 -99 -275 87 -163 199 57 57 171 65 188 12z m429 -19 c82
-98 129 -265 53 -189 -16 16 -37 13 -77 -9 -111 -64 -173 51 -71 131 60 48 63
64 11 64 -42 0 -68 26 -47 47 29 29 85 10 131 -44z"/>
<path d="M5664 10636 c-47 -47 -31 -129 16 -86 22 20 40 53 40 73 0 43 -21 48
-56 13z"/>
<path d="M3680 10506 c0 -28 61 -106 82 -106 44 0 9 110 -37 116 -25 4 -45 -1
-45 -10z"/>
<path d="M4820 10270 c-26 -31 -14 -90 18 -90 34 0 81 60 69 91 -15 37 -55 37
-87 -1z"/>
<path d="M4163 11519 c-47 -33 -80 -51 -73 -40 18 30 -31 26 -96 -8 -30 -16
-50 -21 -43 -10 28 46 -253 -38 -288 -86 -22 -31 -32 -33 -58 -11 -27 22 -29
20 -17 -19 28 -85 -4 -134 -51 -80 -39 45 -39 45 -18 1 12 -24 30 -49 41 -56
12 -7 15 -22 8 -33 -14 -24 48 -97 83 -97 14 0 30 -14 36 -30 7 -17 68 -66
137 -109 l124 -79 73 41 c133 75 259 196 259 250 0 34 -8 45 -25 35 -14 -8 -9
3 10 25 19 22 35 56 35 76 0 31 -5 32 -35 9 -33 -26 -33 -25 -2 12 18 22 39
63 47 90 l15 50 -46 -40 -47 -40 44 63 c63 90 60 156 -3 87 -116 -125 -205
-195 -107 -83 132 151 131 174 -3 82z"/>
<path d="M3110 11259 l-120 -36 90 -1 c117 -2 180 16 180 50 0 33 3 33 -150
-13z"/>
<path d="M3140 11189 l-90 -26 110 -3 110 -4 -90 -26 -90 -26 95 -2 c93 -2 95
-1 95 58 0 66 -6 67 -140 29z"/>
<path d="M4140 10907 c-49 -39 -93 -73 -96 -77 -4 -3 35 -22 85 -41 110 -42
105 -45 122 86 17 123 8 126 -111 32z"/>
<path d="M4274 10871 c-14 -87 -10 -98 31 -88 24 6 25 21 6 87 l-23 80 -14
-79z"/>
<path d="M4360 10834 c0 -55 8 -74 32 -74 25 0 29 12 19 55 -23 90 -51 101
-51 19z"/>
<path d="M5535 10081 c-99 -52 -135 -82 -135 -112 0 -22 -17 -74 -38 -115 -21
-41 -33 -74 -28 -74 39 0 297 157 337 204 27 33 49 48 49 34 0 -90 -422 -337
-691 -405 -473 -120 -1095 -36 -1414 191 l-55 39 19 -51 c11 -28 29 -145 41
-260 25 -247 56 -332 145 -399 105 -79 288 -175 411 -216 63 -21 89 -35 59
-30 l-55 7 0 -132 c1 -563 191 -1718 270 -1639 21 21 330 1614 330 1700 0 10
-17 17 -38 17 -32 0 -42 -28 -69 -185 -22 -135 -28 -153 -21 -65 6 66 15 149
21 184 l11 64 -127 7 c-124 7 -123 7 33 11 383 9 829 143 992 297 50 47 53 60
53 253 0 179 8 224 63 370 123 330 71 427 -163 305z m-1289 -593 c84 -43 134
-88 134 -121 0 -43 -39 -31 -101 31 -172 172 -334 -6 -215 -238 76 -149 218
-163 232 -23 6 61 30 82 52 46 22 -35 -13 -223 -41 -223 -15 0 -27 9 -27 20 0
11 -30 20 -67 20 -115 0 -223 116 -234 250 -19 226 93 325 267 238z m1029
-153 c-4 -14 -27 -28 -50 -31 -111 -17 -204 -204 -101 -204 24 0 64 20 90 43
25 24 46 34 46 22 0 -37 -121 -125 -171 -125 -64 0 -83 75 -40 157 48 94 253
219 226 138z m-766 -107 c20 -28 30 -29 65 -7 46 29 114 12 100 -26 -5 -14
-35 -23 -70 -20 -73 6 -89 -15 -103 -133 -6 -49 -22 -92 -36 -97 -19 -6 -24
231 -6 310 3 15 30 1 50 -27z m341 -1 c46 -17 136 -209 110 -235 -13 -13 -27
-13 -43 3 -17 17 -36 12 -77 -18 -76 -56 -130 -43 -130 33 0 45 15 69 64 100
78 48 83 70 16 70 -49 0 -64 19 -37 47 17 16 54 17 97 0z"/>
<path d="M4795 9098 c-48 -27 -46 -98 3 -98 48 0 90 51 75 90 -14 35 -30 37
-78 8z"/>
<path d="M3487 10070 c-33 -88 58 -202 213 -266 l100 -42 -40 78 c-22 43 -40
96 -40 117 0 64 -212 167 -233 113z"/>
<path d="M4825 9847 c-45 -18 -33 -207 14 -207 48 0 58 15 79 129 17 94 -5
113 -93 78z"/>
<path d="M4189 9753 c-19 -109 -4 -115 276 -119 286 -5 266 -12 281 106 l12
90 -278 0 -278 1 -13 -78z"/>
<path d="M4053 8785 c-74 -863 14 -1487 239 -1684 103 -91 111 -77 49 94 -126
344 -239 1119 -241 1650 0 127 -35 83 -47 -60z"/>
</g>
</svg>
