<?xml version="1.0" encoding="utf-8"?>
<!-- Generator: Adobe Illustrator 19.0.0, SVG Export Plug-In . SVG Version: 6.00 Build 0)  -->
<svg version="1.1" id="Layer_1" xmlns="http://www.w3.org/2000/svg" xmlns:xlink="http://www.w3.org/1999/xlink" x="0px" y="0px"
	 viewBox="191.5 6.7 237.6 434" style="enable-background:new 191.5 6.7 237.6 434;" xml:space="preserve">
<g transform="translate(0.000000,794.000000) scale(0.050000,-0.050000)">
	<path d="M6640,15700c-270-126-280-161-442-1470c-117-948-111-1002,172-1448c144-228,174-318,166-492c-7-152,27-191,78-90
		c20,39,25,42,26,14c0-20-9-53-19-73c-38-71,48-118,88-48l32,57l-12-83c-14-95,17-132,63-74c27,34,29,32,24-33c-5-51,2-70,24-70
		c119,0,128,276,16,518c-180,391-114,558,286,724c255,105,458,320,458,483c0,33,32,32,134-8c106-40,110-9-41-317
		c-146-296-521-1090-656-1388c-57-127-58-127-129-116c-50,9-68,5-63-12c5-13,32-27,61-30c44-6,50-13,36-50c-18-49-4-395,16-393
		c6,1,93,98,192,216l180,215l160,22c1118,155,1483,1219,596,1739c-65,39-85,61-75,85c179,432,129,558-75,187c-88-159-93-162-222-107
		l-90,39l37,176c19,97,46,250,59,339l24,162l110,34c554,175,411,952-176,952c-65,0-91,17-211,137C7245,15719,6876,15809,6640,15700z
		 M7185,15484c179-88,220-136,143-165c-786-296-808-1130-41-1519c195-99,190-89,125-216c-224-443-967-565-1082-179
		c-54,182,63,1408,174,1823C6593,15562,6839,15654,7185,15484z M7842,15278c404-103,421-665,25-831c-115-47-118-43-110,134
		c9,203-27,456-86,603C7611,15335,7613,15337,7842,15278z M7486,15175c82-174,133-518,105-703c-13-89-16-92-87-95l-74-4l77-8l77-8
		l-14-113c-21-180-70-447-86-475c-29-52-338,123-496,280c-386,384-272,935,242,1173C7405,15304,7428,15300,7486,15175z M7978,13643
		c-18-52-78-92-78-52c0,22,46,99,67,113C8000,13725,8002,13712,7978,13643z M7920,13515c0-14-27-65-60-115c-67-101-75-90-28,46
		C7861,13531,7920,13577,7920,13515z M8115,13420c714-476,444-1361-482-1581c-97-22-189-39-205-35c-52,11,569,716,631,716
		c155,0,210,197,83,294c-98,75-249-16-251-150c-1-106-605-883-686-884c-64,0-77-31,291,722c186,378,368,758,405,843
		C7982,13527,7965,13521,8115,13420z M6752,12946c-62-66-80-141-64-263c12-88,11-90-16-43c-58,104-47,228,26,302
		C6772,13015,6819,13019,6752,12946z M8080,12784c0-31-49-64-94-64c-51,0-59,19-22,56C7991,12803,8080,12809,8080,12784z
		 M7121,11621c-75-89-120-130-95-86c5,8,25,50,44,92c31,66,103,123,128,101C7202,11725,7167,11676,7121,11621z"/>
	<path d="M5147,15541c-889-450-592-2097,355-1970l92,12l15-247c30-529,151-919,408-1323c149-233,167-366,112-803
		c-17-131,32-195,210-275c72-32,161-82,197-109c64-48,71-49,194-26l127,24l17,133c76,624,15,803-392,1154
		c-599,516-755,1054-530,1835c206,716,217,960,60,1270C5846,15543,5447,15693,5147,15541z M5644,15375c517-305,435-1329-130-1618
		c-259-133-535,18-704,386C4504,14812,5101,15694,5644,15375z M6502,11359c94-51,92-200-4-250c-154-80-291,100-169,222
		C6382,11384,6439,11393,6502,11359z"/>
	<path d="M6370,11320c-7-11,1-20,18-20c16,0,34-8,40-17c6-10-11-13-38-8c-91,18-82-116,9-145c94-30,168,76,112,161
		C6478,11341,6394,11358,6370,11320z"/>
	<path d="M4933,13120c-460-146-1224-817-1087-954c138-139,1040,421,1277,793C5242,13145,5179,13199,4933,13120z M4720,12806
		c0-45-163-194-268-245c-177-85-232-22-99,114l72,75l-62-76c-117-141-61-178,108-72c172,108,246,200,184,225c-14,5-5,11,20,11
		C4704,12839,4720,12828,4720,12806z"/>
	<path d="M5170,12966c-145-274-880-802-1171-841c-95-12-94-15,16-114c80-71,91-75,170-62c47,8,117,18,155,23l70,8l-80-28l-80-28
		l70-2c39-1,124,11,190,27c66,15,123,25,126,22c6-6-187-73-286-99c-22-6,28-8,110-4l150,7l-119-38c-159-51-165-65-21-48
		c132,16,141,3,19-28c-69-18-61-19,71-13c142,6,146,5,80-19c-38-14-90-27-114-27c-24-1-49-11-56-22c-9-14,26-17,104-9
		c129,14,136,0,15-29l-79-18l102-2c56-1,145,11,199,27c53,16,101,26,105,22c5-5-72-34-169-64c-186-59-175-89,17-48
		c126,27,152,12,33-19c-179-46-195-61-57-53l130,8l-105-33c-477-146-728-991-379-1277c24-20,62-70,83-112c47-91,138-166,303-249
		c273-137,359-324,201-434c-47-34-30-40,27-10c165,88,64,330-197,473c-123,68-283,197-283,229c0,8,36,6,80-4c357-80,566,385,230,513
		c-209,80-410-73-410-313c0-104-36-82-116,71c-195,374,124,1012,545,1089c163,30,163,25,1-28l-140-47l100-4c58-3,79-8,50-13
		c-27-5-59-19-70-30c-20-21,183-5,245,19c32,12,17,105-22,129c-12,9-14,16-3,16s20,48,20,107c0,147,125,376,325,597
		c47,52,96,117,108,145c13,28,31,51,40,51c23,0-4,63-47,109c-20,21-36,50-36,65c0,14-13,26-30,26s-30,18-30,40s-9,40-19,40
		c-11,0-15-12-9-27c5-15-31-71-82-125l-92-98l72,109c51,76,70,125,63,159c-5,28-1,71,9,96c20,55,5,58-49,11c-40-35-40-34-7,14
		c55,81,40,120-19,51l-52-60l43,78c46,81,41,128-6,61c-74-106-106-128-50-35c34,57,59,113,55,125S5192,13007,5170,12966z
		 M5261,12642c-28-52-255-258-374-338c-69-47-77-50-27-11c39,31,142,130,230,219C5251,12676,5299,12712,5261,12642z M5363,12505
		c-47-66-203-213-162-153c101,146,152,207,175,207C5395,12560,5391,12543,5363,12505z M5422,12465c-10-19-47-62-83-95l-64-60l67,94
		C5408,12495,5460,12535,5422,12465z M5463,12405c-11-19-44-57-74-85l-54-50l57,84C5449,12437,5499,12474,5463,12405z M4907,10478
		c130-144-14-378-232-378c-181,0-249,89-198,259C4540,10568,4768,10631,4907,10478z"/>
	<path d="M5638,12530c-43-98-138-232-261-368c-281-308-315-641-95-908c83-101,92-84,24,47c-46,88-57,136-60,268l-3,161l19-127
		c19-127,77-268,121-295c17-10,19-1,7,34c-9,26-18,107-22,178l-6,130l27-103c14-56,32-112,40-125c22-36,53-4,34,34
		c-20,38-9,84,19,84c10,0,18-13,18-29c0-43,30-54,89-31c29,10,113,29,187,41c338,53,375,139,189,444c-123,201-196,346-256,504
		l-45,121L5638,12530z"/>
	<path d="M5053,11654c-16-62-5-148,41-312c35-123,29-197-37-539l-45-227l47-88c126-237,606-499,1059-579c519-91,1089,56,1425,367
		c183,170,206,228,187,484c-17,233-16,216-10,482c7,280-51,368-247,375c-200,7-290-153-221-392c25-85,28-127,12-178
		c-26-87-12-85,129,19c187,139,259,299,198,445c-36,86-23,90,21,6c234-453-763-966-1510-779c-507,127-923,485-1010,868
		C5070,11703,5067,11706,5053,11654z M5346,10970c57-49,110-90,119-90c8,0,15-15,15-33c0-30-4-30-40,3c-58,52-69,28-69-151
		c-1-234-40-186-47,57c-5,174-11,206-42,223c-35,19-73,81-50,81C5239,11060,5290,11020,5346,10970z M7580,10715c50-81,50-96,0-109
		c-22-6-40-19-40-28c0-24-75-98-100-98c-35,0-21,113,20,165c22,28,40,57,40,65c0,7-18,7-40,0c-48-15-51-4-9,39
		C7499,10796,7537,10787,7580,10715z M5548,10662c19-21,61-103,94-183c58-144,61-205,6-129c-16,22-40,41-54,42c-13,1-35,3-49,5
		c-84,10-101,175-19,187l44,6l-45,39c-25,22-45,47-45,55C5480,10712,5513,10701,5548,10662z M7321,10253c-11-29-30-53-43-53
		c-14,0-17,13-7,35c8,19,18,116,23,215s15,194,22,210C7339,10709,7343,10311,7321,10253z M7184,10465c9-124,2-165-26-165
		c-10,0-18,63-18,140C7140,10608,7173,10627,7184,10465z M5794,10520c8-30,22-37,58-28c155,39,251-149,120-237c-40-26-132-17-132,14
		c0,21,17,26,67,18c81-14,107,29,68,110c-18,38-43,55-89,59c-74,7-91-42-82-234c4-72-2-111-19-117c-19-6-25,38-25,178
		c0,103-6,207-13,232c-7,29-3,45,13,45C5773,10560,5788,10542,5794,10520z M7076,10505c-4-19-23-35-43-35c-55,0-93-68-93-165
		c0-137-42-92-48,51c-5,134,1,155,38,124c17-14,35-8,60,20C7035,10550,7085,10552,7076,10505z M6420,10460c0-29,13-40,50-40
		c28,0,50-9,50-20s-23-20-52-20c-50,0-52-3-45-113c4-67-2-116-14-121c-24-8-66,240-53,309C6367,10511,6420,10515,6420,10460z
		 M6296,10402c7-21-6-25-61-14c-48,9-77,4-93-15c-18-23-11-30,39-40c34-7,56-21,49-33c-7-11-34-15-61-8c-61,15-64-19-5-60
		c25-18,65-26,95-20c49,10,50,10,12-21c-123-99-275,87-163,199C6165,10447,6279,10455,6296,10402z M6725,10383c82-98,129-265,53-189
		c-16,16-37,13-77-9c-111-64-173,51-71,131c60,48,63,64,11,64c-42,0-68,26-47,47C6623,10456,6679,10437,6725,10383z"/>
	<path d="M7484,10656c-47-47-31-129,16-86c22,20,40,53,40,73C7540,10686,7519,10691,7484,10656z"/>
	<path d="M5500,10526c0-28,61-106,82-106c44,0,9,110-37,116C5520,10540,5500,10535,5500,10526z"/>
	<path d="M6640,10290c-26-31-14-90,18-90c34,0,81,60,69,91C6712,10328,6672,10328,6640,10290z"/>
	<path d="M5983,11539c-47-33-80-51-73-40c18,30-31,26-96-8c-30-16-50-21-43-10c28,46-253-38-288-86c-22-31-32-33-58-11
		c-27,22-29,20-17-19c28-85-4-134-51-80c-39,45-39,45-18,1c12-24,30-49,41-56c12-7,15-22,8-33c-14-24,48-97,83-97c14,0,30-14,36-30
		c7-17,68-66,137-109l124-79l73,41c133,75,259,196,259,250c0,34-8,45-25,35c-14-8-9,3,10,25s35,56,35,76c0,31-5,32-35,9
		c-33-26-33-25-2,12c18,22,39,63,47,90l15,50l-46-40l-47-40l44,63c63,90,60,156-3,87c-116-125-205-195-107-83
		C6118,11608,6117,11631,5983,11539z"/>
	<path d="M4930,11279l-120-36l90-1c117-2,180,16,180,50C5080,11325,5083,11325,4930,11279z"/>
	<path d="M4960,11209l-90-26l110-3l110-4l-90-26l-90-26l95-2c93-2,95-1,95,58C5100,11246,5094,11247,4960,11209z"/>
	<path d="M5960,10927c-49-39-93-73-96-77c-4-3,35-22,85-41c110-42,105-45,122,86C6088,11018,6079,11021,5960,10927z"/>
	<path d="M6094,10891c-14-87-10-98,31-88c24,6,25,21,6,87l-23,80L6094,10891z"/>
	<path d="M6180,10854c0-55,8-74,32-74c25,0,29,12,19,55C6208,10925,6180,10936,6180,10854z"/>
	<path d="M7355,10101c-99-52-135-82-135-112c0-22-17-74-38-115s-33-74-28-74c39,0,297,157,337,204c27,33,49,48,49,34
		c0-90-422-337-691-405c-473-120-1095-36-1414,191l-55,39l19-51c11-28,29-145,41-260c25-247,56-332,145-399c105-79,288-175,411-216
		c63-21,89-35,59-30l-55,7v-132c1-563,191-1718,270-1639c21,21,330,1614,330,1700c0,10-17,17-38,17c-32,0-42-28-69-185
		c-22-135-28-153-21-65c6,66,15,149,21,184l11,64l-127,7c-124,7-123,7,33,11c383,9,829,143,992,297c50,47,53,60,53,253
		c0,179,8,224,63,370C7641,10126,7589,10223,7355,10101z M6066,9508c84-43,134-88,134-121c0-43-39-31-101,31c-172,172-334-6-215-238
		c76-149,218-163,232-23c6,61,30,82,52,46c22-35-13-223-41-223c-15,0-27,9-27,20s-30,20-67,20c-115,0-223,116-234,250
		C5780,9496,5892,9595,6066,9508z M7095,9355c-4-14-27-28-50-31c-111-17-204-204-101-204c24,0,64,20,90,43c25,24,46,34,46,22
		c0-37-121-125-171-125c-64,0-83,75-40,157C6917,9311,7122,9436,7095,9355z M6329,9248c20-28,30-29,65-7c46,29,114,12,100-26
		c-5-14-35-23-70-20c-73,6-89-15-103-133c-6-49-22-92-36-97c-19-6-24,231-6,310C6282,9290,6309,9276,6329,9248z M6670,9247
		c46-17,136-209,110-235c-13-13-27-13-43,3c-17,17-36,12-77-18c-76-56-130-43-130,33c0,45,15,69,64,100c78,48,83,70,16,70
		c-49,0-64,19-37,47C6590,9263,6627,9264,6670,9247z"/>
	<path d="M6615,9118c-48-27-46-98,3-98c48,0,90,51,75,90C6679,9145,6663,9147,6615,9118z"/>
	<path d="M5307,10090c-33-88,58-202,213-266l100-42l-40,78c-22,43-40,96-40,117C5540,10041,5328,10144,5307,10090z"/>
	<path d="M6645,9867c-45-18-33-207,14-207c48,0,58,15,79,129C6755,9883,6733,9902,6645,9867z"/>
	<path d="M6009,9773c-19-109-4-115,276-119c286-5,266-12,281,106l12,90h-278l-278,1L6009,9773z"/>
	<path d="M5873,8805c-74-863,14-1487,239-1684c103-91,111-77,49,94c-126,344-239,1119-241,1650C5920,8992,5885,8948,5873,8805z"/>
</g>
</svg>
